0
SECTION
2
HEADER
9
$ACADVER
1
AC1015
9
$INSUNITS
70
4
9
$MEASUREMENT
70
1
9
$LUNITS
70
2
9
$LUPREC
70
4
9
$AUNITS
70
0
9
$AUPREC
70
4
9
$EXTMIN
10
-10.0
20
-10.0
30
0.0
9
$EXTMAX
10
90.0
20
60.0
30
0.0
0
ENDSEC
0
SECTION
2
TABLES
0
TABLE
2
VPORT
5
6D
70
1
0
VPORT
5
6E
2
*ACTIVE
70
0
10
0.0
20
0.0
11
1.0
21
1.0
12
40.0
22
25.0
40
60.0
41
1.8
42
50.0
0
ENDTAB
0
TABLE
2
LTYPE
5
6F
70
1
0
LTYPE
5
70
2
CONTINUOUS
70
0
3
Solid line
72
65
73
0
40
0.0
0
ENDTAB
0
TABLE
2
LAYER
5
6A
70
2
0
LAYER
5
6B
2
0_Contorno
70
0
62
7
6
CONTINUOUS
0
LAYER
5
6C
2
Fori
70
0
62
4
6
CONTINUOUS
0
ENDTAB
0
TABLE
2
STYLE
5
71
70
1
0
STYLE
5
72
2
STANDARD
70
0
40
0.0
41
1.0
50
0.0
71
0
42
2.5
3
txt
4

0
ENDTAB
0
TABLE
2
VIEW
5
73
70
0
0
ENDTAB
0
TABLE
2
UCS
5
74
70
0
0
ENDTAB
0
TABLE
2
APPID
5
75
70
1
0
APPID
5
76
2
ACAD
70
0
0
ENDTAB
0
TABLE
2
DIMSTYLE
5
77
70
1
0
DIMSTYLE
105
78
2
STANDARD
70
0
0
ENDTAB
0
ENDSEC
0
SECTION
2
BLOCKS
0
BLOCK
5
79
8
0
2
*MODEL_SPACE
70
0
10
0.0
20
0.0
30
0.0
3
*MODEL_SPACE
1

0
ENDBLK
5
7A
8
0
0
BLOCK
5
7B
8
0
2
*PAPER_SPACE
70
0
10
0.0
20
0.0
30
0.0
3
*PAPER_SPACE
1

0
ENDBLK
5
7C
8
0
0
ENDSEC
0
SECTION
2
ENTITIES
0
LWPOLYLINE
5
65
8
0_Contorno
62
7
90
4
70
1
43
0.0
10
0.0
20
0.0
10
80.0
20
0.0
10
80.0
20
50.0
10
0.0
20
50.0
0
CIRCLE
5
66
8
Fori
62
4
10
8.0
20
8.0
30
0.0
40
3.0
0
CIRCLE
5
67
8
Fori
62
4
10
72.0
20
8.0
30
0.0
40
3.0
0
CIRCLE
5
68
8
Fori
62
4
10
72.0
20
42.0
30
0.0
40
3.0
0
CIRCLE
5
69
8
Fori
62
4
10
8.0
20
42.0
30
0.0
40
3.0
0
ENDSEC
0
SECTION
2
OBJECTS
0
DICTIONARY
5
C
3
ACAD_GROUP
350
D
0
ENDSEC
0
EOF
