0
SECTION
2
HEADER
9
$ACADVER
1
AC1015
9
$INSUNITS
70
4
9
$MEASUREMENT
70
1
9
$LUNITS
70
2
9
$LUPREC
70
4
9
$AUNITS
70
0
9
$AUPREC
70
4
9
$EXTMIN
10
-10.0
20
-10.0
30
0.0
9
$EXTMAX
10
90.0
20
60.0
30
0.0
0
ENDSEC
0
SECTION
2
TABLES
0
TABLE
2
LTYPE
5
74
70
1
0
LTYPE
5
75
2
CONTINUOUS
70
0
3
Solid line
72
65
73
0
40
0.0
0
ENDTAB
0
TABLE
2
LAYER
5
70
70
3
0
LAYER
5
71
2
0
70
0
62
7
6
CONTINUOUS
0
LAYER
5
72
2
Fori
70
0
62
4
6
CONTINUOUS
0
LAYER
5
73
2
Quote
70
0
62
2
6
CONTINUOUS
0
ENDTAB
0
TABLE
2
STYLE
5
76
70
1
0
STYLE
5
77
2
STANDARD
70
0
40
0.0
41
1.0
50
0.0
71
0
42
2.5
3
txt
4

0
ENDTAB
0
ENDSEC
0
SECTION
2
ENTITIES
0
LWPOLYLINE
5
65
8
0
62
7
90
8
70
1
43
0.0
10
0.0
20
6.0
42
0.41421356
10
6.0
20
0.0
10
74.0
20
0.0
42
0.41421356
10
80.0
20
6.0
10
80.0
20
44.0
42
0.41421356
10
74.0
20
50.0
10
6.0
20
50.0
42
0.41421356
10
0.0
20
44.0
0
CIRCLE
5
66
8
Fori
62
4
10
10.0
20
10.0
30
0.0
40
3.0
0
CIRCLE
5
67
8
Fori
62
4
10
70.0
20
10.0
30
0.0
40
3.0
0
CIRCLE
5
68
8
Fori
62
4
10
70.0
20
40.0
30
0.0
40
3.0
0
CIRCLE
5
69
8
Fori
62
4
10
10.0
20
40.0
30
0.0
40
3.0
0
LWPOLYLINE
5
6A
8
Quote
62
2
90
2
70
0
43
0.0
10
0.0
20
-12.0
10
80.0
20
-12.0
0
TEXT
5
6B
8
Quote
62
2
10
40.0
20
-10.8
30
0.0
40
2.5
1
80.00
7
STANDARD
0
LWPOLYLINE
5
6C
8
Quote
62
2
90
2
70
0
43
0.0
10
12.0
20
0.0
10
12.0
20
50.0
0
TEXT
5
6D
8
Quote
62
2
10
12.0
20
26.2
30
0.0
40
2.5
1
50.00
7
STANDARD
0
LWPOLYLINE
5
6E
8
Quote
62
2
90
2
70
0
43
0.0
10
7.0
20
18.0
10
13.0
20
18.0
0
TEXT
5
6F
8
Quote
62
2
10
10.0
20
19.2
30
0.0
40
2.5
1
Ø6.00
7
STANDARD
0
ENDSEC
0
EOF
