0
SECTION
2
HEADER
9
$ACADVER
1
AC1015
9
$INSUNITS
70
4
9
$MEASUREMENT
70
1
9
$LUNITS
70
2
9
$LUPREC
70
4
9
$AUNITS
70
0
9
$AUPREC
70
4
9
$EXTMIN
10
-10.0
20
-10.0
30
0.0
9
$EXTMAX
10
1034.0
20
2309.0
30
0.0
0
ENDSEC
0
SECTION
2
TABLES
0
TABLE
2
LTYPE
5
7E
70
1
0
LTYPE
5
7F
2
CONTINUOUS
70
0
3
Solid line
72
65
73
0
40
0.0
0
ENDTAB
0
TABLE
2
LAYER
5
79
70
4
0
LAYER
5
7A
2
0
70
0
62
7
6
CONTINUOUS
0
LAYER
5
7B
2
Ferramenta
70
0
62
9
6
CONTINUOUS
0
LAYER
5
7C
2
Foto
70
0
62
8
6
CONTINUOUS
0
LAYER
5
7D
2
Quote
70
0
62
2
6
CONTINUOUS
0
ENDTAB
0
TABLE
2
STYLE
5
80
70
1
0
STYLE
5
81
2
STANDARD
70
0
40
0.0
41
1.0
50
0.0
71
0
42
2.5
3
txt
4

0
ENDTAB
0
ENDSEC
0
SECTION
2
ENTITIES
0
LWPOLYLINE
5
65
8
0
62
7
90
4
70
1
43
0.0
10
0.0
20
0.0
10
1024.0
20
0.0
10
1024.0
20
2261.0
10
0.0
20
2261.0
0
LWPOLYLINE
5
66
8
0
62
7
90
4
70
1
43
0.0
10
110.0
20
33.0
10
910.0
20
33.0
10
910.0
20
2133.0
10
110.0
20
2133.0
0
CIRCLE
5
67
8
Ferramenta
62
9
10
157.0
20
1052.0
30
0.0
40
18.0
0
LWPOLYLINE
5
68
8
Ferramenta
62
9
90
4
70
1
43
0.0
10
157.0
20
1042.0
10
285.0
20
1042.0
10
285.0
20
1062.0
10
157.0
20
1062.0
0
LWPOLYLINE
5
69
8
Ferramenta
62
9
90
4
70
1
43
0.0
10
144.0
20
946.0
10
170.0
20
946.0
10
170.0
20
978.0
10
144.0
20
978.0
0
CIRCLE
5
6A
8
Ferramenta
62
9
10
157.0
20
962.0
30
0.0
40
6.0
0
LWPOLYLINE
5
6B
8
Ferramenta
62
9
90
4
70
1
43
0.0
10
906.0
20
268.0
10
926.0
20
268.0
10
926.0
20
298.0
10
906.0
20
298.0
0
LWPOLYLINE
5
6C
8
Ferramenta
62
9
90
4
70
1
43
0.0
10
906.0
20
1068.0
10
926.0
20
1068.0
10
926.0
20
1098.0
10
906.0
20
1098.0
0
LWPOLYLINE
5
6D
8
Ferramenta
62
9
90
4
70
1
43
0.0
10
906.0
20
1868.0
10
926.0
20
1868.0
10
926.0
20
1898.0
10
906.0
20
1898.0
0
LWPOLYLINE
5
6E
8
Quote
62
2
90
2
70
0
43
0.0
10
0.0
20
-50.0
10
1024.0
20
-50.0
0
TEXT
5
6F
8
Quote
62
2
10
512.0
20
-48.8
30
0.0
40
2.5
1
1024.00
7
STANDARD
0
LWPOLYLINE
5
70
8
Quote
62
2
90
2
70
0
43
0.0
10
50.0
20
0.0
10
50.0
20
2261.0
0
TEXT
5
71
8
Quote
62
2
10
50.0
20
1131.7
30
0.0
40
2.5
1
2261.00
7
STANDARD
0
LWPOLYLINE
5
72
8
Quote
62
2
90
2
70
0
43
0.0
10
110.0
20
63.0
10
910.0
20
63.0
0
TEXT
5
73
8
Quote
62
2
10
510.0
20
64.2
30
0.0
40
2.5
1
800.00
7
STANDARD
0
LWPOLYLINE
5
74
8
Quote
62
2
90
2
70
0
43
0.0
10
880.0
20
33.0
10
880.0
20
2133.0
0
TEXT
5
75
8
Quote
62
2
10
880.0
20
1084.2
30
0.0
40
2.5
1
2100.00
7
STANDARD
0
LWPOLYLINE
5
76
8
Quote
62
2
90
2
70
0
43
0.0
10
140.0
20
33.0
10
140.0
20
1052.0
0
TEXT
5
77
8
Quote
62
2
10
140.0
20
543.7
30
0.0
40
2.5
1
1019.00
7
STANDARD
0
TEXT
5
78
8
Quote
62
2
10
20.0
20
2283.0
30
0.0
40
16.0
1
Porta interna a battente · anta 800×2100 · maniglia H 1019 · backset 47
50
0.0
7
STANDARD
0
ENDSEC
0
EOF
