0
SECTION
2
HEADER
9
$ACADVER
1
AC1015
9
$INSUNITS
70
4
9
$MEASUREMENT
70
1
9
$LUNITS
70
2
9
$LUPREC
70
4
9
$AUNITS
70
0
9
$AUPREC
70
4
9
$EXTMIN
10
-10.0
20
-10.0
30
0.0
9
$EXTMAX
10
1040.0
20
2235.5
30
0.0
0
ENDSEC
0
SECTION
2
TABLES
0
TABLE
2
LTYPE
5
87
70
1
0
LTYPE
5
88
2
CONTINUOUS
70
0
3
Solid line
72
65
73
0
40
0.0
0
ENDTAB
0
TABLE
2
LAYER
5
83
70
3
0
LAYER
5
84
2
Contorno
70
0
62
7
6
CONTINUOUS
0
LAYER
5
85
2
Ferramenta
70
0
62
4
6
CONTINUOUS
0
LAYER
5
86
2
Quote
70
0
62
2
6
CONTINUOUS
0
ENDTAB
0
TABLE
2
STYLE
5
89
70
1
0
STYLE
5
8A
2
STANDARD
70
0
40
0.0
41
1.0
50
0.0
71
0
42
2.5
3
txt
4

0
ENDTAB
0
ENDSEC
0
SECTION
2
ENTITIES
0
LWPOLYLINE
5
65
8
Contorno
62
7
90
4
70
1
43
0.0
10
0.0
20
0.0
10
1030.0
20
0.0
10
1030.0
20
2225.5
10
0.0
20
2225.5
0
LWPOLYLINE
5
66
8
Contorno
62
7
90
4
70
0
43
0.0
10
72.0
20
0.0
10
72.0
20
2155.0
10
958.0
20
2155.0
10
958.0
20
0.0
0
LWPOLYLINE
5
67
8
Contorno
62
7
90
4
70
1
43
0.0
10
115.0
20
0.0
10
915.0
20
0.0
10
915.0
20
2100.0
10
115.0
20
2100.0
0
LWPOLYLINE
5
68
8
Ferramenta
62
4
90
8
70
1
43
0.0
10
141.0
20
994.0
10
179.0
20
994.0
42
0.41421356
10
185.0
20
1000.0
10
185.0
20
1038.0
42
0.41421356
10
179.0
20
1044.0
10
141.0
20
1044.0
42
0.41421356
10
135.0
20
1038.0
10
135.0
20
1000.0
42
0.41421356
0
LWPOLYLINE
5
69
8
Ferramenta
62
4
90
4
70
1
43
0.0
10
160.0
20
1029.0
10
248.0
20
1029.0
42
-0.41421356
10
248.0
20
1009.0
10
160.0
20
1009.0
42
-0.41421356
0
LWPOLYLINE
5
6A
8
Ferramenta
62
4
90
8
70
1
43
0.0
10
141.0
20
904.5
10
179.0
20
904.5
42
0.41421356
10
185.0
20
910.5
10
185.0
20
948.5
42
0.41421356
10
179.0
20
954.5
10
141.0
20
954.5
42
0.41421356
10
135.0
20
948.5
10
135.0
20
910.5
42
0.41421356
0
LWPOLYLINE
5
6B
8
Ferramenta
62
4
90
4
70
1
43
0.0
10
162.5
20
930.25
10
162.5
20
928.75
42
-0.41421356
10
157.5
20
928.75
10
157.5
20
930.25
42
-0.41421356
0
LWPOLYLINE
5
6C
8
Ferramenta
62
4
90
4
70
1
43
0.0
10
909.0
20
235.0
10
933.0
20
235.0
10
933.0
20
269.0
10
909.0
20
269.0
0
LWPOLYLINE
5
6D
8
Ferramenta
62
4
90
4
70
1
43
0.0
10
909.0
20
1035.0
10
933.0
20
1035.0
10
933.0
20
1069.0
10
909.0
20
1069.0
0
LWPOLYLINE
5
6E
8
Ferramenta
62
4
90
4
70
1
43
0.0
10
909.0
20
1835.0
10
933.0
20
1835.0
10
933.0
20
1869.0
10
909.0
20
1869.0
0
LWPOLYLINE
5
6F
8
Quote
62
2
90
2
70
0
43
0.0
10
0.0
20
-60.0
10
1030.0
20
-60.0
0
TEXT
5
70
8
Quote
62
2
10
515.0
20
-58.8
30
0.0
40
2.5
1
1030.00
7
STANDARD
0
LWPOLYLINE
5
71
8
Quote
62
2
90
2
70
0
43
0.0
10
60.0
20
0.0
10
60.0
20
2225.5
0
TEXT
5
72
8
Quote
62
2
10
60.0
20
1113.95
30
0.0
40
2.5
1
2225.50
7
STANDARD
0
LWPOLYLINE
5
73
8
Quote
62
2
90
2
70
0
43
0.0
10
115.0
20
-132.0
10
915.0
20
-132.0
0
TEXT
5
74
8
Quote
62
2
10
515.0
20
-130.8
30
0.0
40
2.5
1
800.00
7
STANDARD
0
LWPOLYLINE
5
75
8
Quote
62
2
90
2
70
0
43
0.0
10
891.0
20
0.0
10
891.0
20
2100.0
0
TEXT
5
76
8
Quote
62
2
10
891.0
20
1051.2
30
0.0
40
2.5
1
2100.00
7
STANDARD
0
LWPOLYLINE
5
77
8
Quote
62
2
90
2
70
0
43
0.0
10
132.0
20
2100.0
10
132.0
20
2225.5
0
TEXT
5
78
8
Quote
62
2
10
132.0
20
2163.95
30
0.0
40
2.5
1
125.50
7
STANDARD
0
LWPOLYLINE
5
79
8
Quote
62
2
90
2
70
0
43
0.0
10
141.0
20
0.0
10
141.0
20
1019.0
0
TEXT
5
7A
8
Quote
62
2
10
141.0
20
510.7
30
0.0
40
2.5
1
1019.00
7
STANDARD
0
LWPOLYLINE
5
7B
8
Quote
62
2
90
2
70
0
43
0.0
10
115.0
20
1053.0
10
160.0
20
1053.0
0
TEXT
5
7C
8
Quote
62
2
10
137.5
20
1054.2
30
0.0
40
2.5
1
45.00
7
STANDARD
0
LWPOLYLINE
5
7D
8
Quote
62
2
90
2
70
0
43
0.0
10
135.0
20
968.0
10
185.0
20
968.0
0
TEXT
5
7E
8
Quote
62
2
10
160.0
20
969.2
30
0.0
40
2.5
1
50.00
7
STANDARD
0
LWPOLYLINE
5
7F
8
Quote
62
2
90
2
70
0
43
0.0
10
160.0
20
852.5
10
248.0
20
852.5
0
TEXT
5
80
8
Quote
62
2
10
204.0
20
853.7
30
0.0
40
2.5
1
88.00
7
STANDARD
0
LWPOLYLINE
5
81
8
Quote
62
2
90
2
70
0
43
0.0
10
102.0
20
1019.0
10
102.0
20
929.5
0
TEXT
5
82
8
Quote
62
2
10
102.0
20
975.45
30
0.0
40
2.5
1
89.50
7
STANDARD
0
ENDSEC
0
EOF
